# xmcd
# 
# Track frame offsets:
#     150
#     13410
#     27422
#     42080
#     54302
#     67562
#     79920
#     91929
#     103470
#     116947
#     129855
#     142445
#     155700
#     169355
#     183515
#     195157
#     208227
#     220790
#     232577
#     245290
#     259495
#     274035
#     285267
#     297160
# 
# Disc length: 4163 seconds
# 
# Revision: 3
# Processed by: cddbd v1.4PL0 Copyright (c) Steve Scherf et al.
# Submitted via: BonkEnc v0.9
# 
DISCID=63104118
DTITLE=Muddy Waters - The Real Folk Blues/More Real Folk Blues
DYEAR=1900
DGENRE=
TTITLE0=Mannish Boy
TTITLE1=Screamin' And Crying
TTITLE2=Just To Be With You
TTITLE3=Walking Through the Park
TTITLE4=Walking Blues
TTITLE5=Canary Bird
TTITLE6=The Same Thing
TTITLE7=Gypsy Woman
TTITLE8=Rollin' And Tumblin'
TTITLE9=40 Days and 40 Nights
TTITLE10=Little Geneva
TTITLE11=You Can't Lose What You Ain't Never Had
TTITLE12=Sad Letter
TTITLE13=Gonna Need My Help
TTITLE14=Whiskey Blues
TTITLE15=Down South Blues
TTITLE16=Train Fare Blues
TTITLE17=Kind-Hearted Woman
TTITLE18=Appealing Blues
TTITLE19=Early Morning Blues
TTITLE20=Too Young To Know
TTITLE21=She's All Right
TTITLE22=My Life Is Ruined
TTITLE23=Honey Bee
EXTD=
EXTT0=
EXTT1=
EXTT2=
EXTT3=
EXTT4=
EXTT5=
EXTT6=
EXTT7=
EXTT8=
EXTT9=
EXTT10=
EXTT11=
EXTT12=
EXTT13=
EXTT14=
EXTT15=
EXTT16=
EXTT17=
EXTT18=
EXTT19=
EXTT20=
EXTT21=
EXTT22=
EXTT23=
PLAYORDER=
